# This file uses centimeters as units for non-parametric coordinates.

mtllib Booth_Divider.mtl
g default
v -3.397077 -0.403829 99.379982
v 3.397070 -0.403829 99.379982
v -3.397077 121.711311 99.379982
v 3.397070 121.711311 99.379982
v -3.397077 121.711311 -99.379982
v 3.397070 121.711311 -99.379982
v -3.397077 -0.403829 -99.379982
v 3.397070 -0.403829 -99.379982
v -3.397077 114.915977 99.379982
v 3.397070 114.915977 99.379982
v 3.397070 114.915977 -99.379982
v -3.397077 114.915977 -99.379982
v 6.662492 115.584991 99.379982
v 6.662492 115.584991 -99.379982
v 6.662492 121.042297 -99.379982
v 6.662492 121.042297 99.379982
v -6.662505 115.584991 -99.379982
v -6.662505 115.584991 99.379982
v -6.662505 121.042297 99.379982
v -6.662505 121.042297 -99.379982
vt 0.348993 0.714545
vt 0.317524 0.714545
vt 0.812799 0.068638
vt 0.844209 0.068638
vt 0.812717 0.945009
vt 0.844748 0.945009
vt 0.348992 0.283477
vt 0.317524 0.283477
vt 0.631724 0.714545
vt 0.317524 0.990359
vt 0.902652 0.945009
vt 0.039565 0.283477
vt 0.807340 0.981990
vt 0.348992 0.010560
vt 0.886282 0.068638
vt 0.866878 0.981990
vt 0.860579 0.945009
vt 0.863599 0.063030
vt 0.770797 0.945009
vt 0.790092 0.030265
vt 0.796073 0.068638
vt 0.793139 0.949052
vt 0.754368 0.068638
vt 0.847672 0.030265
vt 0.796609 0.945009
vt 0.788525 0.981990
vt 0.770637 0.068638
vt 0.793452 0.063030
vt 0.865800 0.030265
vt 0.860765 0.068638
vt 0.863834 0.949052
vt 0.886408 0.945009
vt 0.808883 0.030265
vt 0.754904 0.945009
vt 0.848093 0.981990
vt 0.902830 0.068638
vt 0.631724 0.283477
vt 0.317524 0.010560
vt 0.039565 0.714545
vt 0.348993 0.990361
vn 0.000000 0.000000 1.000000
vn 0.000000 0.000000 1.000000
vn 0.000000 0.000000 1.000000
vn 0.000000 0.000000 1.000000
vn -0.066359 0.997796 0.000000
vn 0.066359 0.997796 0.000000
vn 0.066359 0.997796 0.000000
vn -0.066359 0.997796 0.000000
vn -0.000000 0.000000 -1.000000
vn -0.000000 0.000000 -1.000000
vn 0.000000 0.000000 -1.000000
vn 0.000000 0.000000 -1.000000
vn 0.000000 -1.000000 0.000000
vn 0.000000 -1.000000 0.000000
vn 0.000000 -1.000000 0.000000
vn 0.000000 -1.000000 0.000000
vn 1.000000 0.000000 0.000000
vn 1.000000 0.000000 0.000000
vn 1.000000 0.000000 0.000000
vn 1.000000 0.000000 0.000000
vn -1.000000 0.000000 0.000000
vn -1.000000 0.000000 0.000000
vn -1.000000 0.000000 0.000000
vn -1.000000 0.000000 0.000000
vn 0.000000 0.000000 1.000000
vn 0.000000 0.000000 1.000000
vn 1.000000 0.000000 0.000000
vn 1.000000 0.000000 0.000000
vn 1.000000 0.000000 0.000000
vn 1.000000 0.000000 0.000000
vn 0.000000 0.000000 -1.000000
vn 0.000000 0.000000 -1.000000
vn -1.000000 0.000000 0.000000
vn -1.000000 0.000000 0.000000
vn -1.000000 0.000000 0.000000
vn -1.000000 0.000000 0.000000
vn 0.200709 -0.979651 0.000000
vn 0.200709 -0.979651 0.000000
vn 0.200709 -0.979651 0.000000
vn 0.200709 -0.979651 0.000000
vn -0.000001 0.000000 -1.000000
vn -0.000001 0.000000 -1.000000
vn 0.200709 0.979651 0.000000
vn 0.200709 0.979651 0.000000
vn 0.000000 0.000000 1.000000
vn 0.000000 0.000000 1.000000
vn -0.200709 -0.979651 0.000000
vn -0.200709 -0.979651 0.000000
vn -0.200709 -0.979651 0.000000
vn -0.200709 -0.979651 0.000000
vn 0.000000 0.000000 1.000000
vn 0.000000 0.000000 1.000000
vn -0.200709 0.979651 0.000000
vn -0.200709 0.979651 0.000000
vn 0.000001 0.000000 -1.000000
vn 0.000001 0.000000 -1.000000
s 1
g Booth_Devider_LP
usemtl phong1SG
f 9/33/1 10/24/2 4/4/3 3/3/4
s 2
f 3/3/5 4/4/6 6/6/7 5/5/8
s 3
f 6/6/9 11/35/10 12/13/11 5/5/12
s off
f 8/8/13 2/2/14 1/1/15 7/7/16
f 13/15/17 14/32/18 15/17/19 16/30/20
f 20/25/21 17/19/22 18/27/23 19/21/24
s 1
f 2/2/25 10/10/2 9/40/1 1/1/26
s off
f 11/12/27 10/39/28 2/2/29 8/8/30
s 3
f 12/14/11 11/38/10 8/8/31 7/7/32
s off
f 1/1/33 9/9/34 12/37/35 7/7/36
f 13/15/37 10/36/38 11/11/39 14/32/40
s 3
f 15/31/41 14/16/42 11/35/10 6/6/9
s 2
f 4/4/6 16/30/43 15/17/44 6/6/7
s 1
f 10/24/2 13/29/45 16/18/46 4/4/3
s off
f 12/34/47 9/23/48 18/27/49 17/19/50
s 1
f 18/20/51 9/33/1 3/3/4 19/28/52
s 2
f 19/21/53 3/3/5 5/5/8 20/25/54
s 3
f 5/5/12 12/13/11 17/26/55 20/22/56
